<svg width="646" height="828" viewBox="0 0 646 828" fill="none" xmlns="http://www.w3.org/2000/svg">
    <path
        d="M569.287 493.444C567.153 646.616 558.944 676.331 502.962 732.807C474.395 761.576 406.514 790.168 373.107 803.666C373.107 803.666 402.693 787.304 412.01 779.107C421.327 770.911 433.44 755.645 433.44 755.645C429.172 765.824 472.754 732.478 493.604 709.494C535.96 662.869 544.333 631.348 546.303 510.025C547.616 431.715 547.124 415.626 543.348 415.791C529.886 416.119 474.724 454.699 444.352 485.071L412.01 517.249C412.01 517.249 406.521 525.54 403.638 531.203C400.639 537.093 397.071 546.8 397.071 546.8L390.011 563.053C383.116 578.978 379.176 591.126 355.043 670.093C340.76 716.554 325.163 749.388 306.776 771.387L293.314 787.312C293.314 787.312 277.659 785.567 269.678 783.965C261.697 782.363 261.059 781.502 261.059 781.502C269.678 772.815 267.978 774.067 280.673 761.373C309.567 732.642 317.94 713.763 348.312 609.678C354.878 587.186 365.385 557.799 371.624 544.173L381.726 521.7C381.726 521.7 387.015 512.455 390.011 508.156C393.008 503.856 397.071 499.682 397.071 499.682L423.01 471.117C462.083 431.223 500.006 405.94 548.273 387.717L570.765 379.344L569.287 493.444Z"
        fill="#C16A4B" />
    <path
        d="M103.203 650.392C103.203 633.747 96.6359 53.1347 99.9194 35.7325C101.397 28.1805 116.337 42.2992 254.241 180.204C365.057 291.02 406.264 334.361 404.951 338.137C403.145 342.734 393.295 343.391 324.835 343.391H246.689L322.865 419.567L397.071 499.682C397.071 499.682 393.008 503.856 390.011 508.156C387.015 512.455 381.726 521.7 381.726 521.7L359.562 497.074C356.671 494.093 351.574 488.712 344.794 481.553L344.79 481.55L344.758 481.515C326.891 462.653 297.366 431.482 265.733 399.373L186.274 318.765L268.852 317.944L351.595 316.959L240.122 205.486C178.722 144.086 127.829 93.8494 126.844 93.8494C126.023 93.8494 126.023 219.113 126.844 372.121L128.485 650.392C128.485 650.392 128.257 665.603 131.774 674.38C149.34 718.214 183.155 747.746 224.362 768.432C237.548 775.025 254.319 781.136 261.059 781.502C261.059 781.502 261.697 782.363 269.678 783.965C277.659 785.567 293.314 787.312 293.314 787.312L324.178 786.163C421.861 782.387 466.023 690.614 419.398 588.335C414.309 577.336 407.249 563.381 403.638 557.471L397.071 546.8C397.071 546.8 400.639 537.093 403.638 531.203C406.521 525.54 412.01 517.249 412.01 517.249L420.711 531.203C450.755 579.634 463.232 620.185 463.068 670.093C462.979 697.178 456.536 709.378 447.344 726.784L447.342 726.788C443.164 734.701 438.416 743.691 433.44 755.645C433.44 755.645 421.327 770.911 412.01 779.107C402.693 787.304 373.107 803.666 373.107 803.666C272.141 834.447 103.203 776.761 103.203 650.392Z"
        fill="#1B3A2F" />
</svg>